<?xml version="1.0" standalone="no"?>
<!DOCTYPE svg PUBLIC "-//W3C//DTD SVG 20010904//EN"
 "http://www.w3.org/TR/2001/REC-SVG-20010904/DTD/svg10.dtd">
<svg version="1.0" xmlns="http://www.w3.org/2000/svg"
 width="350.000000pt" height="350.000000pt" viewBox="0 0 350.000000 350.000000"
 preserveAspectRatio="xMidYMid meet">

<g transform="translate(0.000000,350.000000) scale(0.100000,-0.100000)"
fill="#000000" stroke="none">
<path d="M1737 2880 c-23 -39 -22 -40 23 -40 l41 0 -16 29 c-21 42 -29 44 -48
11z"/>
<path d="M1477 2338 c-35 -8 -51 -16 -56 -32 -11 -27 -65 -390 -66 -436 0 -29
3 -34 18 -32 12 2 20 -4 24 -16 6 -25 107 -46 124 -25 8 9 8 13 0 13 -20 0
-12 16 9 17 11 1 18 -2 15 -7 -3 -5 8 -2 24 6 29 15 224 28 216 14 -2 -4 -39
-10 -82 -12 -98 -7 -161 -26 -178 -52 -7 -12 -47 -163 -89 -336 -43 -173 -81
-325 -86 -336 -6 -17 -23 -24 -74 -34 l-65 -12 -68 -91 -68 -92 -122 -20 c-67
-11 -125 -23 -129 -28 -4 -4 410 -7 919 -7 510 0 927 2 927 4 0 2 -56 14 -125
27 l-125 22 -69 92 -69 92 -68 14 -68 15 -23 99 c-12 55 -29 129 -37 165 -9
36 -31 133 -51 215 -20 83 -39 167 -42 188 -5 34 -4 37 19 37 51 0 86 12 91
31 3 12 11 17 20 13 8 -3 18 -1 21 5 7 11 -53 472 -63 483 -3 4 -34 10 -67 13
l-61 7 -8 -86 -7 -87 -51 3 -52 3 -5 85 -5 85 -72 3 -71 3 -7 -68 c-11 -116
-9 -113 -65 -113 l-50 0 -1 48 c0 64 -12 125 -24 127 -6 2 -32 -2 -58 -7z
m209 -226 c-2 -4 -35 -8 -73 -8 l-68 -1 55 7 c83 10 92 11 86 2z m144 -245 c0
-2 -20 -3 -45 -3 -50 1 -61 13 -17 18 23 3 62 -7 62 -15z m-122 6 c-16 -2 -40
-2 -55 0 -16 2 -3 4 27 4 30 0 43 -2 28 -4z m-173 -31 c-3 -3 -11 0 -18 7 -9
10 -8 11 6 5 10 -3 15 -9 12 -12z m91 -52 c0 -12 -4 -16 -9 -11 -5 5 -6 14 -3
20 10 15 12 14 12 -9z m54 -445 c0 -25 -33 -85 -47 -85 -8 0 -12 4 -8 9 3 5 0
13 -6 17 -8 5 -9 3 -5 -5 5 -8 0 -14 -13 -18 l-22 -6 20 -18 c11 -11 29 -19
41 -19 22 0 23 -6 14 -62 l-7 -38 -83 0 c-51 0 -84 -4 -84 -10 0 -6 -15 -10
-33 -8 -19 1 -34 7 -34 14 0 7 4 11 9 8 13 -8 10 10 -4 25 -11 11 -10 12 0 7
7 -4 29 2 48 13 19 12 32 16 28 10 -9 -15 46 -3 61 13 7 7 1 8 -19 4 -32 -8
-31 -4 16 49 9 12 21 39 26 60 7 34 13 41 37 45 54 10 65 9 65 -5z m39 -88 c8
-10 7 -14 -2 -14 -8 0 -14 6 -14 14 0 7 1 13 2 13 2 0 8 -6 14 -13z m283 -25
c10 -10 8 -12 -9 -9 -13 2 -25 6 -29 9 -3 4 -13 4 -22 1 -13 -3 -14 -2 -4 4
17 13 49 10 64 -5z m-285 -153 c-1 -11 -7 -17 -14 -15 -6 3 -15 -4 -18 -15 -7
-21 -59 -27 -71 -7 -5 7 -3 8 6 3 9 -5 11 -4 6 4 -4 6 -11 9 -16 6 -5 -3 -12
0 -15 6 -5 7 -14 3 -26 -10 -11 -12 -30 -21 -42 -21 -12 0 -27 -4 -34 -8 -11
-7 -33 -80 -38 -127 -1 -19 -10 -20 -115 -23 l-113 -3 24 20 c17 14 26 16 31
8 5 -8 8 -5 8 7 0 10 13 40 29 66 16 27 27 51 24 54 -4 3 -1 6 6 6 7 0 11 6 9
12 -9 25 67 46 187 51 64 3 119 7 121 10 3 2 15 2 29 0 16 -4 23 -11 22 -24z"/>
<path d="M1672 1066 c-1 -15 1 -17 7 -7 5 7 15 17 22 22 10 6 8 8 -7 7 -12 -1
-21 -10 -22 -22z"/>
<path d="M1240 773 c-56 -20 -83 -89 -56 -141 20 -39 44 -52 96 -52 103 0 141
138 50 185 -29 15 -62 18 -90 8z m71 -16 c42 -32 51 -99 18 -141 -46 -58 -122
-15 -122 70 0 37 5 51 22 66 27 21 59 23 82 5z"/>
<path d="M1726 764 c-25 -24 -19 -52 19 -91 39 -40 43 -75 11 -81 -11 -3 -26
4 -33 14 -12 17 -14 17 -32 0 -32 -29 -56 -17 -59 32 -3 37 -1 42 17 42 12 0
21 -4 21 -10 0 -5 5 -10 10 -10 6 0 10 7 10 15 0 10 -10 15 -30 15 -28 0 -30
3 -30 35 0 30 3 35 24 35 13 0 27 -6 29 -12 3 -8 6 -6 6 5 1 14 -7 17 -43 17
l-45 0 -3 -95 -3 -94 90 0 c134 1 160 35 84 110 -42 41 -45 55 -15 73 13 9 20
7 32 -8 14 -19 14 -19 14 2 0 18 -6 22 -29 22 -16 0 -37 -7 -45 -16z"/>
<path d="M1968 769 c-30 -17 -22 -61 17 -99 22 -22 35 -42 33 -55 -4 -27 -47
-33 -65 -9 -12 17 -13 16 -13 -4 0 -19 6 -22 38 -22 72 0 85 54 27 110 -37 36
-45 67 -20 77 9 3 25 -3 37 -13 20 -19 20 -19 17 1 -5 23 -44 31 -71 14z"/>
<path d="M2222 763 c-5 -10 -21 -53 -37 -96 -25 -73 -29 -78 -54 -75 -26 3
-26 4 -29 91 -2 66 -6 87 -17 87 -10 0 -14 -22 -17 -95 l-3 -95 63 0 c35 0 61
3 58 8 -2 4 2 22 9 40 20 47 52 44 73 -8 15 -34 21 -40 48 -40 l31 0 -5 70
c-2 39 -2 70 1 70 3 0 36 -31 73 -70 37 -38 71 -70 76 -70 4 0 8 43 8 95 0 71
-3 95 -13 95 -9 0 -12 -18 -9 -72 l3 -73 -76 78 c-47 50 -77 74 -80 65 -2 -7
-6 -51 -7 -98 l-3 -85 -38 95 c-22 52 -40 97 -42 98 -2 2 -7 -5 -13 -15z m21
-73 c4 -15 0 -20 -15 -20 -14 0 -18 5 -14 16 3 9 6 20 6 25 0 17 17 1 23 -21z"/>
<path d="M830 675 c0 -84 2 -95 18 -95 14 0 17 7 14 40 -3 29 0 40 9 40 8 0
30 -18 50 -40 29 -31 44 -40 70 -40 l34 0 -3 50 -4 50 51 0 51 0 0 -50 c0 -41
3 -50 18 -50 15 0 17 11 17 95 0 84 -2 95 -17 95 -14 0 -18 -9 -18 -40 l0 -40
-50 0 -50 0 0 40 c0 29 -4 40 -15 40 -12 0 -15 -17 -15 -92 l0 -93 -37 38
c-33 33 -36 40 -25 57 17 28 15 77 -4 84 -34 13 -45 7 -24 -14 11 -11 20 -25
20 -31 0 -23 -22 -49 -41 -49 -19 0 -21 5 -17 50 2 42 0 50 -14 50 -16 0 -18
-11 -18 -95z"/>
<path d="M1398 675 l-3 -95 63 0 c57 0 67 3 93 29 63 64 21 163 -68 160 l-28
-1 32 -9 c62 -18 83 -91 42 -143 -17 -22 -28 -27 -58 -24 l-36 3 0 88 c0 75
-2 87 -17 87 -14 0 -17 -14 -20 -95z"/>
<path d="M1880 675 c0 -84 2 -95 18 -95 15 0 17 10 14 95 -3 74 -6 95 -18 95
-11 0 -14 -19 -14 -95z"/>
<path d="M2535 675 l0 -95 52 0 c68 0 99 13 118 49 23 45 19 79 -14 112 -22
21 -38 29 -63 28 -23 -1 -26 -3 -11 -6 31 -6 73 -59 73 -92 0 -47 -35 -81 -81
-81 l-40 0 3 90 c3 84 2 90 -17 90 -19 0 -20 -7 -20 -95z"/>
<path d="M572 696 l-21 -36 39 0 c45 0 47 4 21 43 l-18 28 -21 -35z"/>
<path d="M2895 700 c-21 -40 -20 -40 25 -40 l39 0 -20 35 c-12 19 -23 35 -25
35 -2 0 -10 -13 -19 -30z"/>
<path d="M386 595 c-5 -13 19 -15 190 -15 152 0 195 3 192 13 -4 9 -53 13
-190 15 -159 2 -187 0 -192 -13z"/>
<path d="M2740 595 c0 -13 28 -15 195 -15 169 0 194 2 189 15 -5 13 -36 15
-195 15 -161 0 -189 -2 -189 -15z"/>
</g>
</svg>
